<mxfile host="app.diagrams.net" modified="2024-05-13T13:01:45.703Z" agent="Mozilla/5.0 (Windows NT 10.0; Win64; x64) AppleWebKit/537.36 (KHTML, like Gecko) Chrome/124.0.0.0 Safari/537.36" version="24.3.1" etag="NUi2DaCoX4J3uLSH6cDF" type="device">
  <diagram id="HMKRL17efVGiwerMgILO" name="Page-1">
    <mxGraphModel dx="1247" dy="701" grid="1" gridSize="10" guides="1" tooltips="1" connect="1" arrows="1" fold="1" page="1" pageScale="1" pageWidth="827" pageHeight="1169" math="0" shadow="0">
      <root>
        <mxCell id="0" />
        <mxCell id="1" parent="0" />
        <mxCell id="1s_cHjDBamymek_0xI_M-7" style="rounded=0;orthogonalLoop=1;jettySize=auto;html=1;exitX=1;exitY=0.3333333333333333;exitDx=0;exitDy=0;exitPerimeter=0;entryX=0;entryY=0.5;entryDx=0;entryDy=0;" edge="1" parent="1" source="1s_cHjDBamymek_0xI_M-3" target="1s_cHjDBamymek_0xI_M-6">
          <mxGeometry relative="1" as="geometry" />
        </mxCell>
        <mxCell id="1s_cHjDBamymek_0xI_M-9" style="rounded=0;orthogonalLoop=1;jettySize=auto;html=1;exitX=1;exitY=0.3333333333333333;exitDx=0;exitDy=0;exitPerimeter=0;entryX=0;entryY=0.5;entryDx=0;entryDy=0;" edge="1" parent="1" source="1s_cHjDBamymek_0xI_M-3" target="1s_cHjDBamymek_0xI_M-8">
          <mxGeometry relative="1" as="geometry" />
        </mxCell>
        <mxCell id="1s_cHjDBamymek_0xI_M-11" style="rounded=0;orthogonalLoop=1;jettySize=auto;html=1;exitX=1;exitY=1;exitDx=0;exitDy=0;exitPerimeter=0;entryX=0;entryY=0.5;entryDx=0;entryDy=0;" edge="1" parent="1" source="1s_cHjDBamymek_0xI_M-3" target="1s_cHjDBamymek_0xI_M-10">
          <mxGeometry relative="1" as="geometry" />
        </mxCell>
        <mxCell id="1s_cHjDBamymek_0xI_M-14" style="rounded=0;orthogonalLoop=1;jettySize=auto;html=1;exitX=0.75;exitY=0.1;exitDx=0;exitDy=0;exitPerimeter=0;entryX=0;entryY=0.5;entryDx=0;entryDy=0;" edge="1" parent="1" source="1s_cHjDBamymek_0xI_M-3" target="1s_cHjDBamymek_0xI_M-13">
          <mxGeometry relative="1" as="geometry" />
        </mxCell>
        <mxCell id="1s_cHjDBamymek_0xI_M-3" value="Visiteur" style="shape=umlActor;verticalLabelPosition=bottom;verticalAlign=top;html=1;outlineConnect=0;" vertex="1" parent="1">
          <mxGeometry x="30" y="200" width="30" height="60" as="geometry" />
        </mxCell>
        <mxCell id="1s_cHjDBamymek_0xI_M-6" value="&lt;font style=&quot;font-size: 18px;&quot;&gt;Accueil&lt;/font&gt;" style="ellipse;whiteSpace=wrap;html=1;" vertex="1" parent="1">
          <mxGeometry x="354" y="110" width="120" height="80" as="geometry" />
        </mxCell>
        <mxCell id="1s_cHjDBamymek_0xI_M-8" value="&lt;font style=&quot;font-size: 18px;&quot;&gt;Jeux Global&lt;/font&gt;" style="ellipse;whiteSpace=wrap;html=1;" vertex="1" parent="1">
          <mxGeometry x="354" y="220" width="120" height="80" as="geometry" />
        </mxCell>
        <mxCell id="1s_cHjDBamymek_0xI_M-10" value="&lt;font style=&quot;font-size: 18px;&quot;&gt;Jeux Détail&lt;/font&gt;" style="ellipse;whiteSpace=wrap;html=1;" vertex="1" parent="1">
          <mxGeometry x="354" y="340" width="120" height="80" as="geometry" />
        </mxCell>
        <mxCell id="1s_cHjDBamymek_0xI_M-13" value="&lt;font style=&quot;font-size: 18px;&quot;&gt;Créer un compte&lt;/font&gt;" style="ellipse;whiteSpace=wrap;html=1;" vertex="1" parent="1">
          <mxGeometry x="160" y="10" width="120" height="80" as="geometry" />
        </mxCell>
        <mxCell id="1s_cHjDBamymek_0xI_M-16" style="rounded=0;orthogonalLoop=1;jettySize=auto;html=1;exitX=0;exitY=0.3333333333333333;exitDx=0;exitDy=0;exitPerimeter=0;entryX=1;entryY=0.5;entryDx=0;entryDy=0;strokeColor=default;" edge="1" parent="1" source="1s_cHjDBamymek_0xI_M-15" target="1s_cHjDBamymek_0xI_M-6">
          <mxGeometry relative="1" as="geometry" />
        </mxCell>
        <mxCell id="1s_cHjDBamymek_0xI_M-17" style="rounded=0;orthogonalLoop=1;jettySize=auto;html=1;exitX=0;exitY=0.3333333333333333;exitDx=0;exitDy=0;exitPerimeter=0;entryX=1;entryY=0.5;entryDx=0;entryDy=0;" edge="1" parent="1" source="1s_cHjDBamymek_0xI_M-15" target="1s_cHjDBamymek_0xI_M-8">
          <mxGeometry relative="1" as="geometry" />
        </mxCell>
        <mxCell id="1s_cHjDBamymek_0xI_M-18" style="rounded=0;orthogonalLoop=1;jettySize=auto;html=1;exitX=0;exitY=1;exitDx=0;exitDy=0;exitPerimeter=0;entryX=1;entryY=0.5;entryDx=0;entryDy=0;" edge="1" parent="1" source="1s_cHjDBamymek_0xI_M-15" target="1s_cHjDBamymek_0xI_M-10">
          <mxGeometry relative="1" as="geometry" />
        </mxCell>
        <mxCell id="1s_cHjDBamymek_0xI_M-21" style="rounded=0;orthogonalLoop=1;jettySize=auto;html=1;exitX=0.25;exitY=0.1;exitDx=0;exitDy=0;exitPerimeter=0;entryX=0.5;entryY=1;entryDx=0;entryDy=0;" edge="1" parent="1" source="1s_cHjDBamymek_0xI_M-15" target="1s_cHjDBamymek_0xI_M-20">
          <mxGeometry relative="1" as="geometry" />
        </mxCell>
        <mxCell id="1s_cHjDBamymek_0xI_M-26" style="rounded=0;orthogonalLoop=1;jettySize=auto;html=1;exitX=0;exitY=1;exitDx=0;exitDy=0;exitPerimeter=0;" edge="1" parent="1" source="1s_cHjDBamymek_0xI_M-15" target="1s_cHjDBamymek_0xI_M-25">
          <mxGeometry relative="1" as="geometry" />
        </mxCell>
        <mxCell id="1s_cHjDBamymek_0xI_M-29" style="rounded=0;orthogonalLoop=1;jettySize=auto;html=1;exitX=0;exitY=1;exitDx=0;exitDy=0;exitPerimeter=0;entryX=0.5;entryY=0;entryDx=0;entryDy=0;" edge="1" parent="1" source="1s_cHjDBamymek_0xI_M-15" target="1s_cHjDBamymek_0xI_M-27">
          <mxGeometry relative="1" as="geometry" />
        </mxCell>
        <mxCell id="1s_cHjDBamymek_0xI_M-15" value="Utilisateur" style="shape=umlActor;verticalLabelPosition=bottom;verticalAlign=top;html=1;outlineConnect=0;" vertex="1" parent="1">
          <mxGeometry x="710" y="200" width="30" height="60" as="geometry" />
        </mxCell>
        <mxCell id="1s_cHjDBamymek_0xI_M-23" style="rounded=0;orthogonalLoop=1;jettySize=auto;html=1;exitX=0;exitY=0.5;exitDx=0;exitDy=0;entryX=1;entryY=0.5;entryDx=0;entryDy=0;dashed=1;" edge="1" parent="1" source="1s_cHjDBamymek_0xI_M-20" target="1s_cHjDBamymek_0xI_M-22">
          <mxGeometry relative="1" as="geometry" />
        </mxCell>
        <mxCell id="1s_cHjDBamymek_0xI_M-24" value="Extend" style="edgeLabel;html=1;align=center;verticalAlign=middle;resizable=0;points=[];" vertex="1" connectable="0" parent="1s_cHjDBamymek_0xI_M-23">
          <mxGeometry x="-0.12" y="-1" relative="1" as="geometry">
            <mxPoint as="offset" />
          </mxGeometry>
        </mxCell>
        <mxCell id="1s_cHjDBamymek_0xI_M-20" value="&lt;font style=&quot;font-size: 18px;&quot;&gt;Panier&lt;/font&gt;" style="ellipse;whiteSpace=wrap;html=1;" vertex="1" parent="1">
          <mxGeometry x="650" y="20" width="120" height="80" as="geometry" />
        </mxCell>
        <mxCell id="1s_cHjDBamymek_0xI_M-22" value="&lt;span style=&quot;font-size: 18px;&quot;&gt;Valider commande&lt;/span&gt;" style="ellipse;whiteSpace=wrap;html=1;" vertex="1" parent="1">
          <mxGeometry x="414" y="20" width="120" height="80" as="geometry" />
        </mxCell>
        <mxCell id="1s_cHjDBamymek_0xI_M-25" value="&lt;font style=&quot;font-size: 18px;&quot;&gt;Espace personnel&lt;/font&gt;" style="ellipse;whiteSpace=wrap;html=1;" vertex="1" parent="1">
          <mxGeometry x="650" y="470" width="120" height="80" as="geometry" />
        </mxCell>
        <mxCell id="1s_cHjDBamymek_0xI_M-30" style="edgeStyle=orthogonalEdgeStyle;rounded=0;orthogonalLoop=1;jettySize=auto;html=1;exitX=0.5;exitY=1;exitDx=0;exitDy=0;entryX=0.5;entryY=0;entryDx=0;entryDy=0;dashed=1;" edge="1" parent="1" source="1s_cHjDBamymek_0xI_M-27" target="1s_cHjDBamymek_0xI_M-28">
          <mxGeometry relative="1" as="geometry" />
        </mxCell>
        <mxCell id="1s_cHjDBamymek_0xI_M-31" value="Included" style="edgeLabel;html=1;align=center;verticalAlign=middle;resizable=0;points=[];" vertex="1" connectable="0" parent="1s_cHjDBamymek_0xI_M-30">
          <mxGeometry x="0.0205" relative="1" as="geometry">
            <mxPoint as="offset" />
          </mxGeometry>
        </mxCell>
        <mxCell id="1s_cHjDBamymek_0xI_M-27" value="&lt;font style=&quot;font-size: 18px;&quot;&gt;Connection&lt;/font&gt;" style="ellipse;whiteSpace=wrap;html=1;" vertex="1" parent="1">
          <mxGeometry x="460" y="440" width="120" height="80" as="geometry" />
        </mxCell>
        <mxCell id="1s_cHjDBamymek_0xI_M-28" value="&lt;font style=&quot;font-size: 18px;&quot;&gt;Mdp Oublié&lt;/font&gt;" style="ellipse;whiteSpace=wrap;html=1;" vertex="1" parent="1">
          <mxGeometry x="460" y="585" width="120" height="80" as="geometry" />
        </mxCell>
        <mxCell id="1s_cHjDBamymek_0xI_M-33" style="rounded=0;orthogonalLoop=1;jettySize=auto;html=1;exitX=0.5;exitY=0;exitDx=0;exitDy=0;exitPerimeter=0;entryX=0;entryY=0.5;entryDx=0;entryDy=0;" edge="1" parent="1" source="1s_cHjDBamymek_0xI_M-32" target="1s_cHjDBamymek_0xI_M-6">
          <mxGeometry relative="1" as="geometry" />
        </mxCell>
        <mxCell id="1s_cHjDBamymek_0xI_M-34" style="rounded=0;orthogonalLoop=1;jettySize=auto;html=1;exitX=0.75;exitY=0.1;exitDx=0;exitDy=0;exitPerimeter=0;" edge="1" parent="1" source="1s_cHjDBamymek_0xI_M-32">
          <mxGeometry relative="1" as="geometry">
            <mxPoint x="350" y="260" as="targetPoint" />
          </mxGeometry>
        </mxCell>
        <mxCell id="1s_cHjDBamymek_0xI_M-35" style="rounded=0;orthogonalLoop=1;jettySize=auto;html=1;exitX=1;exitY=0.3333333333333333;exitDx=0;exitDy=0;exitPerimeter=0;entryX=0;entryY=0.5;entryDx=0;entryDy=0;" edge="1" parent="1" source="1s_cHjDBamymek_0xI_M-32" target="1s_cHjDBamymek_0xI_M-10">
          <mxGeometry relative="1" as="geometry" />
        </mxCell>
        <mxCell id="1s_cHjDBamymek_0xI_M-37" style="rounded=0;orthogonalLoop=1;jettySize=auto;html=1;exitX=1;exitY=0.3333333333333333;exitDx=0;exitDy=0;exitPerimeter=0;entryX=0;entryY=0.5;entryDx=0;entryDy=0;" edge="1" parent="1" source="1s_cHjDBamymek_0xI_M-32" target="1s_cHjDBamymek_0xI_M-36">
          <mxGeometry relative="1" as="geometry" />
        </mxCell>
        <mxCell id="1s_cHjDBamymek_0xI_M-39" style="rounded=0;orthogonalLoop=1;jettySize=auto;html=1;exitX=0.5;exitY=0.5;exitDx=0;exitDy=0;exitPerimeter=0;entryX=0;entryY=0.5;entryDx=0;entryDy=0;" edge="1" parent="1" source="1s_cHjDBamymek_0xI_M-32" target="1s_cHjDBamymek_0xI_M-38">
          <mxGeometry relative="1" as="geometry" />
        </mxCell>
        <mxCell id="1s_cHjDBamymek_0xI_M-43" style="rounded=0;orthogonalLoop=1;jettySize=auto;html=1;exitX=1;exitY=1;exitDx=0;exitDy=0;exitPerimeter=0;" edge="1" parent="1" source="1s_cHjDBamymek_0xI_M-32" target="1s_cHjDBamymek_0xI_M-40">
          <mxGeometry relative="1" as="geometry" />
        </mxCell>
        <mxCell id="1s_cHjDBamymek_0xI_M-45" style="rounded=0;orthogonalLoop=1;jettySize=auto;html=1;exitX=0;exitY=1;exitDx=0;exitDy=0;exitPerimeter=0;entryX=0;entryY=0.5;entryDx=0;entryDy=0;" edge="1" parent="1" source="1s_cHjDBamymek_0xI_M-32" target="1s_cHjDBamymek_0xI_M-44">
          <mxGeometry relative="1" as="geometry" />
        </mxCell>
        <mxCell id="1s_cHjDBamymek_0xI_M-47" style="rounded=0;orthogonalLoop=1;jettySize=auto;html=1;exitX=1;exitY=1;exitDx=0;exitDy=0;exitPerimeter=0;entryX=0;entryY=0.5;entryDx=0;entryDy=0;" edge="1" parent="1" source="1s_cHjDBamymek_0xI_M-32" target="1s_cHjDBamymek_0xI_M-46">
          <mxGeometry relative="1" as="geometry" />
        </mxCell>
        <mxCell id="1s_cHjDBamymek_0xI_M-49" style="rounded=0;orthogonalLoop=1;jettySize=auto;html=1;exitX=1;exitY=1;exitDx=0;exitDy=0;exitPerimeter=0;entryX=0;entryY=0;entryDx=0;entryDy=0;" edge="1" parent="1" source="1s_cHjDBamymek_0xI_M-32" target="1s_cHjDBamymek_0xI_M-48">
          <mxGeometry relative="1" as="geometry" />
        </mxCell>
        <mxCell id="1s_cHjDBamymek_0xI_M-32" value="Administrateur" style="shape=umlActor;verticalLabelPosition=bottom;verticalAlign=top;html=1;outlineConnect=0;" vertex="1" parent="1">
          <mxGeometry x="40" y="480" width="30" height="60" as="geometry" />
        </mxCell>
        <mxCell id="1s_cHjDBamymek_0xI_M-36" value="&lt;font style=&quot;font-size: 18px;&quot;&gt;Création Jeux&lt;/font&gt;" style="ellipse;whiteSpace=wrap;html=1;" vertex="1" parent="1">
          <mxGeometry x="280" y="440" width="120" height="80" as="geometry" />
        </mxCell>
        <mxCell id="1s_cHjDBamymek_0xI_M-38" value="&lt;font style=&quot;font-size: 18px;&quot;&gt;Gestion stocks&lt;/font&gt;" style="ellipse;whiteSpace=wrap;html=1;" vertex="1" parent="1">
          <mxGeometry x="280" y="540" width="120" height="80" as="geometry" />
        </mxCell>
        <mxCell id="1s_cHjDBamymek_0xI_M-40" value="&lt;font style=&quot;font-size: 18px;&quot;&gt;Récap ventes&lt;/font&gt;" style="ellipse;whiteSpace=wrap;html=1;" vertex="1" parent="1">
          <mxGeometry x="60" y="690" width="120" height="80" as="geometry" />
        </mxCell>
        <mxCell id="1s_cHjDBamymek_0xI_M-44" value="&lt;font style=&quot;font-size: 18px;&quot;&gt;Créer employé&lt;/font&gt;" style="ellipse;whiteSpace=wrap;html=1;" vertex="1" parent="1">
          <mxGeometry x="40" y="820" width="120" height="80" as="geometry" />
        </mxCell>
        <mxCell id="1s_cHjDBamymek_0xI_M-46" value="&lt;font style=&quot;font-size: 18px;&quot;&gt;Affichage des ventes&lt;/font&gt;" style="ellipse;whiteSpace=wrap;html=1;" vertex="1" parent="1">
          <mxGeometry x="280" y="680" width="120" height="80" as="geometry" />
        </mxCell>
        <mxCell id="1s_cHjDBamymek_0xI_M-48" value="&lt;span style=&quot;font-size: 18px;&quot;&gt;Valider/Livrer commande&lt;/span&gt;" style="ellipse;whiteSpace=wrap;html=1;" vertex="1" parent="1">
          <mxGeometry x="280" y="800" width="120" height="80" as="geometry" />
        </mxCell>
        <mxCell id="1s_cHjDBamymek_0xI_M-51" style="rounded=0;orthogonalLoop=1;jettySize=auto;html=1;exitX=0;exitY=0.3333333333333333;exitDx=0;exitDy=0;exitPerimeter=0;entryX=1;entryY=0.5;entryDx=0;entryDy=0;" edge="1" parent="1" source="1s_cHjDBamymek_0xI_M-50" target="1s_cHjDBamymek_0xI_M-46">
          <mxGeometry relative="1" as="geometry" />
        </mxCell>
        <mxCell id="1s_cHjDBamymek_0xI_M-52" style="rounded=0;orthogonalLoop=1;jettySize=auto;html=1;exitX=0;exitY=1;exitDx=0;exitDy=0;exitPerimeter=0;entryX=1;entryY=0.5;entryDx=0;entryDy=0;" edge="1" parent="1" source="1s_cHjDBamymek_0xI_M-50" target="1s_cHjDBamymek_0xI_M-48">
          <mxGeometry relative="1" as="geometry" />
        </mxCell>
        <mxCell id="1s_cHjDBamymek_0xI_M-50" value="Employé" style="shape=umlActor;verticalLabelPosition=bottom;verticalAlign=top;html=1;outlineConnect=0;" vertex="1" parent="1">
          <mxGeometry x="710" y="730" width="30" height="60" as="geometry" />
        </mxCell>
      </root>
    </mxGraphModel>
  </diagram>
</mxfile>
